<svg width="152" height="110" viewBox="0 0 152 110" fill="none" xmlns="http://www.w3.org/2000/svg">
<path d="M135.323 79.505L135.43 79.7333C135.918 80.7806 136.204 81.9549 136.262 83.2357C136.406 86.2089 135.306 89.3536 132.982 92.6769L130.933 95.6101L129.698 97.3791C127.436 100.591 124.097 103.244 119.686 105.284C115.263 107.331 111.07 108.191 107.136 107.851L38.4171 101.825L20.9876 100.308C17.0533 99.9682 14.4681 98.5256 13.2651 95.9808C12.0621 93.436 12.5981 90.5542 14.8536 87.3284L18.1369 82.6262C20.4675 79.3163 23.6572 76.3414 27.6917 73.7409C31.7397 71.134 36.0129 69.2558 40.5053 68.0927C50.0547 65.7158 59.1725 64.0958 67.8846 63.2535C74.889 62.57 81.6213 62.3894 88.1009 62.7189C89.6833 62.782 91.2513 62.8845 92.8049 63.0264C93.2811 63.0659 93.7634 63.1188 94.2458 63.1718C101.59 63.8828 108.358 65.2872 114.546 67.3386C121.14 69.527 127.085 72.4599 132.38 76.1372C133.419 76.8947 134.251 77.7657 134.88 78.7307C135.046 78.9804 135.184 79.2428 135.323 79.505Z" fill="#002B4D" stroke="#3B82F6" stroke-width="2" stroke-linecap="round" stroke-linejoin="round"/>
<path d="M145.219 18.8922L145.251 18.9593C147.617 24.0347 146.533 29.7713 142.042 36.197C141.849 36.4833 141.649 36.7562 141.43 37.022C136.942 43.103 130.45 48.1086 122.011 52.0271C113.479 55.9894 105.392 57.717 97.7509 57.21C97.4663 57.1956 97.1817 57.1812 96.9042 57.1471C89.0159 56.461 83.8588 53.5696 81.4528 48.4799C79.053 43.4037 80.1054 37.633 84.6297 31.1752C89.1406 24.7236 95.8197 19.4514 104.661 15.345C113.502 11.2387 121.866 9.54517 129.754 10.2313C137.663 10.9245 142.8 13.8088 145.219 18.8922Z" fill="#002B4D" stroke="#3B82F6" stroke-width="2" stroke-linecap="round" stroke-linejoin="round"/>
<path d="M145.251 18.956L157.742 45.7424C160.148 50.8321 159.076 56.5955 154.565 63.0472C150.116 69.4209 143.53 74.6493 134.869 78.7207C134.24 77.7557 133.408 76.8847 132.368 76.1273C127.074 72.4499 121.129 69.5171 114.535 67.3287C108.347 65.2773 101.579 63.8728 94.2347 63.1618C93.7523 63.1089 93.2699 63.0559 92.7938 63.0164C91.2401 62.8746 89.6721 62.7721 88.0898 62.709L81.4531 48.4766C83.8592 53.5662 89.0162 56.4577 96.9045 57.1438C97.1819 57.1779 97.4665 57.1923 97.7511 57.2067C105.392 57.7137 113.479 55.986 122.012 52.0237C130.45 48.1052 136.943 43.0997 141.43 37.0186C141.65 36.7529 141.849 36.4799 142.043 36.1936C146.533 29.7679 147.618 24.0313 145.251 18.956Z" fill="#002B4D" stroke="#3B82F6" stroke-width="2" stroke-linecap="round" stroke-linejoin="round"/>
<path d="M135.426 79.7291L148.011 106.717C148.467 107.73 148.728 108.851 148.78 110.085C148.925 113.058 147.825 116.203 145.5 119.526L142.217 124.228C139.955 127.441 136.615 130.093 132.205 132.134C127.781 134.18 123.589 135.04 119.654 134.7L33.5063 127.157C29.572 126.818 26.9868 125.375 25.7837 122.83L13.2617 95.9766C14.4647 98.5214 17.0499 99.964 20.9842 100.303L38.4138 101.82L107.132 107.847C111.067 108.186 115.259 107.327 119.683 105.28C124.093 103.24 127.433 100.587 129.695 97.3749L130.93 95.6058L132.978 92.6727C135.303 89.3493 136.403 86.2046 136.258 83.2314C136.201 81.9507 135.915 80.7763 135.426 79.7291Z" fill="#002B4D" stroke="#3B82F6" stroke-width="2" stroke-linecap="round" stroke-linejoin="round"/>
</svg>
