<svg width="212" height="198" viewBox="0 0 212 198" fill="none" xmlns="http://www.w3.org/2000/svg">
<path d="M68.5666 102.162C67.4684 103.722 67.2053 105.078 67.7467 106.243C68.2952 107.424 69.5291 108.079 71.4251 108.237L78.038 108.82L72.3962 96.6723L68.5666 102.162Z" fill="#002B4D" stroke="#3B82F6" stroke-width="1.8" stroke-linecap="round" stroke-linejoin="round"/>
<path d="M167.083 93.3254L181.33 124L168.029 122.833L159.431 104.321L125.864 101.363L120.223 89.216L167.083 93.3254Z" fill="#002B4D" stroke="#3B82F6" stroke-width="1.8" stroke-linecap="round" stroke-linejoin="round"/>
<path d="M99.1692 99.0264L104.02 109.471C102.058 110.371 100.17 110.751 98.3187 110.609C98.2811 110.608 98.2434 110.607 98.2057 110.606L91.4201 110.011L85.7783 97.864L99.1692 99.0264Z" fill="#002B4D" stroke="#3B82F6" stroke-width="1.8" stroke-linecap="round" stroke-linejoin="round"/>
<path d="M106.831 88.0415L112.516 100.281L108.741 105.689C108.671 105.778 108.608 105.882 108.531 105.956C107.451 107.395 105.979 108.551 104.085 109.438L104.024 109.466L99.1724 99.0215L106.831 88.0415Z" fill="#002B4D" stroke="#3B82F6" stroke-width="1.8" stroke-linecap="round" stroke-linejoin="round"/>
<path d="M106.83 88.0494L99.171 99.0294L85.7802 97.867L93.4466 86.8647L106.83 88.0494Z" fill="#002B4D" stroke="#3B82F6" stroke-width="1.8" stroke-linecap="round" stroke-linejoin="round"/>
<path d="M159.434 104.313L147.751 121.042L144.102 126.28C142.619 128.412 140.622 130.281 138.121 131.862C137.085 132.515 135.975 133.129 134.768 133.694C130.682 135.588 126.815 136.39 123.165 136.101L123.052 136.098L82.9931 132.576L36.1105 128.458L15.9269 126.686C12.2408 126.357 9.84203 124.997 8.72262 122.627C7.59609 120.241 8.09187 117.545 10.2026 114.521L25.5281 92.5387L38.8286 93.706L59.11 95.4889L72.3953 96.6634L68.5658 102.153C67.4676 103.713 67.2045 105.069 67.7459 106.234C68.2944 107.415 69.5284 108.07 71.4244 108.228L78.037 108.811L91.3373 109.978L91.4198 109.996L98.2054 110.591C98.2054 110.591 98.2809 110.593 98.3186 110.594C100.17 110.735 102.058 110.356 104.02 109.455L104.081 109.427C105.975 108.54 107.447 107.384 108.527 105.945C108.604 105.871 108.667 105.767 108.738 105.678L112.512 100.27L112.567 100.188L125.868 101.356L159.434 104.313Z" fill="#002B4D" stroke="#3B82F6" stroke-width="1.8" stroke-linecap="round" stroke-linejoin="round"/>
<path d="M180.534 53.7073L172.522 52.9955L153.752 51.3451L161.411 40.365C163.514 37.364 164.01 34.6671 162.906 32.2898L162.891 32.2591C161.765 29.8736 159.373 28.5285 155.687 28.2003L128.89 25.8453C125.211 25.5324 121.322 26.3265 117.19 28.2422C113.065 30.1733 109.952 32.6394 107.841 35.6629L100.182 46.6427L73.4082 44.2958C69.7221 43.9675 65.817 44.7688 61.6924 46.6999C57.5759 48.6084 54.4469 51.0817 52.3514 54.098L33.1968 81.5702L66.7789 84.5204L80.0637 85.6951L83.8859 80.1898C84.9841 78.63 86.5263 77.3851 88.5498 76.4564C89.7567 75.8914 90.9278 75.5298 92.0938 75.3574C92.8809 75.2503 93.6508 75.226 94.4256 75.2927L114.609 77.0653L121.2 77.6397C123.103 77.813 124.321 78.4749 124.878 79.6334C125.419 80.7991 125.156 82.1546 124.065 83.7297L120.236 89.2198L167.096 93.3291L174.574 82.6016L186.258 65.8721C188.361 62.871 188.849 60.1589 187.752 57.7969L187.738 57.7662C186.611 55.3807 184.213 54.0203 180.534 53.7073ZM140.354 50.1674L126.881 48.9877L113.58 47.8204L121.239 36.8404L148.013 39.1874L140.354 50.1674Z" fill="#002B4D" stroke="#3B82F6" stroke-width="1.8" stroke-linecap="round" stroke-linejoin="round"/>
<path d="M121.227 36.8351L126.868 48.9823L113.568 47.815L121.227 36.8351Z" fill="#002B4D" stroke="#3B82F6" stroke-width="1.8" stroke-linecap="round" stroke-linejoin="round"/>
<path d="M148.008 39.1771L140.349 50.1572L126.876 48.9773L121.234 36.8301L148.008 39.1771Z" fill="#002B4D" stroke="#3B82F6" stroke-width="1.8" stroke-linecap="round" stroke-linejoin="round"/>
<path d="M187.749 57.7901L201.982 88.4343C203.101 90.8045 202.613 93.5167 200.502 96.5402L181.341 123.997L167.094 93.322L174.572 82.5947L186.255 65.8651C188.358 62.8641 188.846 60.1521 187.749 57.7901Z" fill="#002B4D" stroke="#3B82F6" stroke-width="1.8" stroke-linecap="round" stroke-linejoin="round"/>
<path d="M162.887 32.2804L172.504 52.9861L153.734 51.3356L161.393 40.3556C163.496 37.3546 163.991 34.6577 162.887 32.2804Z" fill="#002B4D" stroke="#3B82F6" stroke-width="1.8" stroke-linecap="round" stroke-linejoin="round"/>
<path d="M124.869 79.6344C125.411 80.8 125.148 82.1555 124.057 83.7307L120.227 89.2208L125.869 101.368L112.568 100.201L112.513 100.282L106.829 88.0431L93.4458 86.8584L85.7793 97.8607L91.4211 110.008L91.3384 109.991L80.0549 85.6961L83.8771 80.1908C84.9753 78.631 86.5174 77.3861 88.541 76.4574C89.7479 75.8924 90.919 75.5308 92.085 75.3584C92.8721 75.2513 93.6419 75.227 94.4168 75.2936L114.6 77.0663L121.191 77.6406C123.094 77.814 124.313 78.4759 124.869 79.6344Z" fill="#002B4D" stroke="#3B82F6" stroke-width="1.8" stroke-linecap="round" stroke-linejoin="round"/>
<path d="M80.0642 85.6983L91.3477 109.993L78.0476 108.825L72.4058 96.6781L59.1206 95.5037L38.839 93.7208L33.1973 81.5735L66.7794 84.5237L80.0642 85.6983Z" fill="#002B4D" stroke="#3B82F6" stroke-width="1.8" stroke-linecap="round" stroke-linejoin="round"/>
<path d="M159.436 104.315L173.683 134.99L158.35 156.957C156.255 159.973 153.126 162.446 149.016 164.37C144.885 166.286 140.979 167.087 137.301 166.774L30.1753 157.362C26.4892 157.034 24.0904 155.674 22.971 153.304L8.72412 122.629C9.84353 124.999 12.2424 126.359 15.9284 126.687L36.1121 128.46L82.9946 132.578L123.054 136.099L123.167 136.102C126.816 136.392 130.684 135.589 134.769 133.695C135.976 133.13 137.086 132.517 138.122 131.864C140.624 130.282 142.62 128.414 144.103 126.282L147.752 121.044L159.436 104.315Z" fill="#002B4D" stroke="#3B82F6" stroke-width="1.8" stroke-linecap="round" stroke-linejoin="round"/>
</svg>
