<svg width="35" height="35" viewBox="0 0 35 35" fill="none" xmlns="http://www.w3.org/2000/svg">
<path d="M14.5846 8.75H23.3346M14.5846 20.4167H23.3346M14.5846 14.5833H32.0846M14.5846 26.25H32.0846M4.3763 14.5833H7.29297C8.09838 14.5833 8.7513 13.9304 8.7513 13.125V10.2083C8.7513 9.40292 8.09838 8.75 7.29297 8.75H4.3763C3.57089 8.75 2.91797 9.40292 2.91797 10.2083V13.125C2.91797 13.9304 3.57089 14.5833 4.3763 14.5833ZM4.3763 26.25H7.29297C8.09838 26.25 8.7513 25.5971 8.7513 24.7917V21.875C8.7513 21.0696 8.09838 20.4167 7.29297 20.4167H4.3763C3.57089 20.4167 2.91797 21.0696 2.91797 21.875V24.7917C2.91797 25.5971 3.57089 26.25 4.3763 26.25Z" stroke="#28303F" stroke-width="1.5" stroke-linecap="round"/>
</svg>
